<svg xmlns="http://www.w3.org/2000/svg" xmlns:xlink="http://www.w3.org/1999/xlink" zoomAndPan="magnify" width="48" height="48" viewBox="0 0 38 38" preserveAspectRatio="xMidYMid meet" version="1.0"><defs><clipPath id="0c06a2db13"><path d="M 6.371094 0 L 37 0 L 37 29 L 6.371094 29 Z M 6.371094 0 " clip-rule="nonzero"/></clipPath><clipPath id="15051332de"><path d="M 4 14.457031 L 41 14.457031 L 41 15.183594 L 4 15.183594 Z M 4 14.457031 " clip-rule="nonzero"/></clipPath></defs><g clip-path="url(#0c06a2db13)"><path fill="#ffffff" d="M 12.125 4.210938 C 11.78125 4.496094 11.460938 4.800781 11.171875 5.128906 C 11.3125 4.984375 11.457031 4.839844 11.605469 4.695312 C 11.738281 4.566406 11.910156 4.40625 12.125 4.210938 M 10.722656 4.480469 C 10.488281 4.6875 10.28125 4.886719 10.101562 5.074219 C 9.921875 5.265625 9.757812 5.445312 9.617188 5.621094 C 9.9375 5.257812 10.308594 4.878906 10.722656 4.480469 M 34.972656 11.269531 L 34.96875 11.332031 L 34.96875 11.453125 L 34.980469 11.519531 L 34.992188 11.582031 L 35.015625 11.648438 L 35.042969 11.714844 L 35.078125 11.78125 L 35.125 11.851562 L 35.175781 11.925781 L 35.238281 12 L 35.3125 12.078125 C 35.214844 11.835938 35.105469 11.566406 34.972656 11.269531 M 21.421875 0.0117188 L 21.226562 0.015625 C 17.160156 0.191406 13.660156 1.675781 10.730469 4.472656 C 13.808594 1.773438 17.261719 0.386719 21.09375 0.304688 C 23.089844 0.320312 24.789062 0.621094 26.195312 1.210938 C 28.292969 2.050781 29.972656 3.0625 31.226562 4.242188 C 32.144531 5.097656 32.824219 5.859375 33.273438 6.523438 C 32.144531 4.941406 30.445312 3.570312 28.167969 2.417969 C 25.691406 1.28125 23.269531 0.710938 20.914062 0.710938 C 17.722656 0.648438 14.792969 1.8125 12.128906 4.203125 C 14.878906 2.007812 17.957031 1.035156 21.355469 1.28125 C 25.308594 1.640625 28.625 3.054688 31.308594 5.527344 C 32.769531 6.910156 33.992188 8.820312 34.972656 11.269531 C 35.164062 10.644531 35.21875 10.273438 35.136719 10.148438 C 35.527344 11.316406 35.757812 12.53125 35.832031 13.792969 C 36.09375 17.355469 34.980469 20.710938 32.488281 23.863281 C 36.578125 19.242188 37.40625 14.09375 34.972656 8.414062 C 33.648438 5.703125 31.910156 3.722656 29.753906 2.46875 C 27.058594 0.859375 24.28125 0.0390625 21.421875 0.0117188 M 32.484375 23.867188 L 32.382812 23.976562 C 32.070312 24.3125 31.738281 24.652344 31.382812 24.996094 L 31.625 24.800781 L 31.675781 24.757812 C 31.691406 24.746094 31.753906 24.691406 31.859375 24.585938 C 31.949219 24.496094 32.042969 24.390625 32.148438 24.269531 L 32.3125 24.078125 L 32.484375 23.867188 M 11.167969 5.132812 L 10.914062 5.398438 C 8.039062 8.625 6.753906 12.246094 7.066406 16.261719 C 6.605469 14.535156 6.628906 12.730469 7.140625 10.84375 C 7.632812 8.847656 8.457031 7.109375 9.613281 5.628906 C 7.703125 7.820312 6.652344 10.625 6.464844 14.046875 C 6.460938 14.664062 6.5625 15.4375 6.777344 16.367188 C 7.519531 19.011719 7.957031 20.417969 8.082031 20.578125 C 8.90625 22.453125 9.875 23.90625 10.988281 24.941406 C 12.410156 26.269531 13.976562 27.269531 15.683594 27.9375 C 17.410156 28.652344 19.046875 28.996094 20.589844 28.96875 C 22.800781 28.921875 24.878906 28.589844 26.820312 27.980469 C 28.234375 27.476562 29.753906 26.480469 31.378906 24.996094 C 29.695312 26.339844 28.25 27.199219 27.035156 27.574219 C 24.769531 28.195312 22.675781 28.492188 20.753906 28.464844 C 19.550781 28.546875 17.835938 28.109375 15.613281 27.152344 C 13.988281 26.441406 12.644531 25.5625 11.585938 24.519531 C 10.738281 23.671875 10.097656 22.878906 9.65625 22.144531 C 10.96875 23.714844 12.867188 25.21875 15.359375 26.648438 C 16.558594 27.316406 17.75 27.792969 18.9375 28.082031 C 19.246094 28.152344 19.417969 28.175781 19.457031 28.15625 C 19.476562 28.152344 19.476562 28.136719 19.449219 28.113281 C 19.503906 28.148438 19.582031 28.113281 19.6875 28.011719 C 19.773438 27.902344 19.832031 27.796875 19.859375 27.695312 C 18.285156 27.65625 15.863281 26.585938 12.589844 24.476562 C 10.722656 23.082031 9.316406 21.445312 8.371094 19.566406 C 7.480469 17.429688 7.285156 14.890625 7.796875 11.957031 C 8.167969 9.675781 9.292969 7.402344 11.167969 5.132812 " fill-opacity="1" fill-rule="nonzero"/></g><g clip-path="url(#15051332de)"><path fill="#ffffff" d="M 40.253906 15.175781 L 4.746094 15.175781 L 4.746094 14.453125 L 40.253906 14.453125 L 40.253906 15.175781 " fill-opacity="1" fill-rule="nonzero"/></g></svg>